<svg width="194" height="30" viewBox="0 0 194 30" fill="none" xmlns="http://www.w3.org/2000/svg">
<path d="M52.1136 5.54545H54.6364L60.5682 20.0341H60.7727L66.7045 5.54545H69.2273V23H67.25V9.73864H67.0795L61.625 23H59.7159L54.2614 9.73864H54.0909V23H52.1136V5.54545ZM81.4425 17.6477V9.90909H83.4538V23H81.4425V20.7841H81.3061C80.9993 21.4489 80.522 22.0142 79.8743 22.4801C79.2266 22.9403 78.4084 23.1705 77.4197 23.1705C76.6016 23.1705 75.8743 22.9915 75.2379 22.6335C74.6016 22.2699 74.1016 21.7244 73.7379 20.9972C73.3743 20.2642 73.1925 19.3409 73.1925 18.2273V9.90909H75.2038V18.0909C75.2038 19.0455 75.4709 19.8068 76.005 20.375C76.5447 20.9432 77.2322 21.2273 78.0675 21.2273C78.5675 21.2273 79.076 21.0994 79.593 20.8438C80.1158 20.5881 80.5533 20.196 80.9055 19.6676C81.2635 19.1392 81.4425 18.4659 81.4425 17.6477ZM96.4105 12.8409L94.6037 13.3523C94.4901 13.0511 94.3224 12.7585 94.1009 12.4744C93.8849 12.1847 93.5895 11.946 93.2145 11.7585C92.8395 11.571 92.3594 11.4773 91.7741 11.4773C90.973 11.4773 90.3054 11.6619 89.7713 12.0312C89.2429 12.3949 88.9787 12.858 88.9787 13.4205C88.9787 13.9205 89.1605 14.3153 89.5241 14.6051C89.8878 14.8949 90.456 15.1364 91.2287 15.3295L93.1719 15.8068C94.3423 16.0909 95.2145 16.5256 95.7884 17.1108C96.3622 17.6903 96.6491 18.4375 96.6491 19.3523C96.6491 20.1023 96.4332 20.7727 96.0014 21.3636C95.5753 21.9545 94.9787 22.4205 94.2116 22.7614C93.4446 23.1023 92.5526 23.2727 91.5355 23.2727C90.2003 23.2727 89.0952 22.983 88.2202 22.4034C87.3452 21.8239 86.7912 20.9773 86.5582 19.8636L88.4673 19.3864C88.6491 20.0909 88.9929 20.6193 89.4986 20.9716C90.0099 21.3239 90.6776 21.5 91.5014 21.5C92.4389 21.5 93.1832 21.3011 93.7344 20.9034C94.2912 20.5 94.5696 20.017 94.5696 19.4545C94.5696 19 94.4105 18.6193 94.0923 18.3125C93.7741 18 93.2855 17.767 92.6264 17.6136L90.4446 17.1023C89.2457 16.8182 88.3651 16.3778 87.8026 15.7812C87.2457 15.179 86.9673 14.4261 86.9673 13.5227C86.9673 12.7841 87.1747 12.1307 87.5895 11.5625C88.0099 10.9943 88.581 10.5483 89.3026 10.2244C90.0298 9.90057 90.8537 9.73864 91.7741 9.73864C93.0696 9.73864 94.0866 10.0227 94.8253 10.5909C95.5696 11.1591 96.098 11.9091 96.4105 12.8409ZM99.6768 23V9.90909H101.688V23H99.6768ZM100.7 7.72727C100.308 7.72727 99.9695 7.59375 99.6854 7.3267C99.407 7.05966 99.2678 6.73864 99.2678 6.36364C99.2678 5.98864 99.407 5.66761 99.6854 5.40057C99.9695 5.13352 100.308 5 100.7 5C101.092 5 101.427 5.13352 101.705 5.40057C101.989 5.66761 102.131 5.98864 102.131 6.36364C102.131 6.73864 101.989 7.05966 101.705 7.3267C101.427 7.59375 101.092 7.72727 100.7 7.72727ZM110.69 23.2727C109.463 23.2727 108.406 22.983 107.52 22.4034C106.634 21.8239 105.952 21.0256 105.474 20.0085C104.997 18.9915 104.759 17.8295 104.759 16.5227C104.759 15.1932 105.003 14.0199 105.491 13.0028C105.986 11.9801 106.673 11.1818 107.554 10.608C108.44 10.0284 109.474 9.73864 110.656 9.73864C111.577 9.73864 112.406 9.90909 113.145 10.25C113.884 10.5909 114.489 11.0682 114.96 11.6818C115.432 12.2955 115.724 13.0114 115.838 13.8295H113.827C113.673 13.233 113.332 12.7045 112.804 12.2443C112.281 11.7784 111.577 11.5455 110.69 11.5455C109.906 11.5455 109.219 11.75 108.628 12.1591C108.043 12.5625 107.585 13.1335 107.256 13.8722C106.932 14.6051 106.77 15.4659 106.77 16.4545C106.77 17.4659 106.929 18.3466 107.247 19.0966C107.571 19.8466 108.026 20.429 108.611 20.8438C109.202 21.2585 109.895 21.4659 110.69 21.4659C111.213 21.4659 111.688 21.375 112.114 21.1932C112.54 21.0114 112.901 20.75 113.196 20.4091C113.491 20.0682 113.702 19.6591 113.827 19.1818H115.838C115.724 19.9545 115.443 20.6506 114.994 21.2699C114.551 21.8835 113.963 22.3722 113.23 22.7358C112.503 23.0938 111.656 23.2727 110.69 23.2727ZM125.801 23V5.54545H131.699C133.068 5.54545 134.188 5.79261 135.057 6.28693C135.932 6.77557 136.58 7.4375 137 8.27273C137.42 9.10795 137.631 10.0398 137.631 11.0682C137.631 12.0966 137.42 13.0312 137 13.8722C136.585 14.7131 135.943 15.3835 135.074 15.8835C134.205 16.3778 133.091 16.625 131.733 16.625H127.506V14.75H131.665C132.602 14.75 133.355 14.5881 133.923 14.2642C134.491 13.9403 134.903 13.5028 135.159 12.9517C135.42 12.3949 135.551 11.767 135.551 11.0682C135.551 10.3693 135.42 9.74432 135.159 9.19318C134.903 8.64205 134.489 8.21023 133.915 7.89773C133.341 7.57955 132.58 7.42045 131.631 7.42045H127.915V23H125.801ZM142.774 5.54545V23H140.763V5.54545H142.774ZM150.31 23.3068C149.481 23.3068 148.728 23.1506 148.052 22.8381C147.376 22.5199 146.839 22.0625 146.441 21.4659C146.043 20.8636 145.844 20.1364 145.844 19.2841C145.844 18.5341 145.992 17.9261 146.288 17.4602C146.583 16.9886 146.978 16.6193 147.472 16.3523C147.967 16.0852 148.512 15.8864 149.109 15.7557C149.711 15.6193 150.316 15.5114 150.924 15.4318C151.719 15.3295 152.364 15.2528 152.859 15.2017C153.359 15.1449 153.722 15.0511 153.95 14.9205C154.183 14.7898 154.299 14.5625 154.299 14.2386V14.1705C154.299 13.3295 154.069 12.6761 153.609 12.2102C153.154 11.7443 152.464 11.5114 151.538 11.5114C150.577 11.5114 149.825 11.7216 149.279 12.142C148.734 12.5625 148.35 13.0114 148.129 13.4886L146.219 12.8068C146.56 12.0114 147.015 11.392 147.583 10.9489C148.157 10.5 148.782 10.1875 149.458 10.0114C150.14 9.82955 150.81 9.73864 151.469 9.73864C151.89 9.73864 152.373 9.78977 152.918 9.89204C153.469 9.98864 154.001 10.1903 154.512 10.4972C155.029 10.804 155.458 11.267 155.799 11.8864C156.14 12.5057 156.31 13.3352 156.31 14.375V23H154.299V21.2273H154.197C154.06 21.5114 153.833 21.8153 153.515 22.1392C153.197 22.4631 152.773 22.7386 152.245 22.9659C151.717 23.1932 151.072 23.3068 150.31 23.3068ZM150.617 21.5C151.413 21.5 152.083 21.3438 152.629 21.0312C153.18 20.7188 153.594 20.3153 153.873 19.821C154.157 19.3267 154.299 18.8068 154.299 18.2614V16.4205C154.214 16.5227 154.026 16.6165 153.737 16.7017C153.452 16.7812 153.123 16.8523 152.748 16.9148C152.379 16.9716 152.018 17.0227 151.665 17.0682C151.319 17.108 151.038 17.142 150.822 17.1705C150.299 17.2386 149.81 17.3494 149.356 17.5028C148.907 17.6506 148.543 17.875 148.265 18.1761C147.992 18.4716 147.856 18.875 147.856 19.3864C147.856 20.0852 148.114 20.6136 148.631 20.9716C149.154 21.3239 149.816 21.5 150.617 21.5ZM160.808 27.9091C160.467 27.9091 160.163 27.8807 159.896 27.8239C159.629 27.7727 159.445 27.7216 159.342 27.6705L159.854 25.8977C160.342 26.0227 160.774 26.0682 161.149 26.0341C161.524 26 161.857 25.8324 162.146 25.5312C162.442 25.2358 162.712 24.7557 162.956 24.0909L163.331 23.0682L158.49 9.90909H160.672L164.286 20.3409H164.422L168.036 9.90909H170.217L164.661 24.9091C164.411 25.5852 164.101 26.1449 163.732 26.5881C163.362 27.0369 162.933 27.3693 162.445 27.5852C161.962 27.8011 161.416 27.9091 160.808 27.9091ZM177.892 23.2727C176.631 23.2727 175.543 22.9943 174.628 22.4375C173.719 21.875 173.017 21.0909 172.523 20.0852C172.034 19.0739 171.79 17.8977 171.79 16.5568C171.79 15.2159 172.034 14.0341 172.523 13.0114C173.017 11.983 173.705 11.1818 174.585 10.608C175.472 10.0284 176.506 9.73864 177.688 9.73864C178.369 9.73864 179.043 9.85227 179.707 10.0795C180.372 10.3068 180.977 10.6761 181.523 11.1875C182.068 11.6932 182.503 12.3636 182.827 13.1989C183.151 14.0341 183.312 15.0625 183.312 16.2841V17.1364H173.222V15.3977H181.267C181.267 14.6591 181.119 14 180.824 13.4205C180.534 12.8409 180.119 12.3835 179.58 12.0483C179.045 11.7131 178.415 11.5455 177.688 11.5455C176.886 11.5455 176.193 11.7443 175.608 12.142C175.028 12.5341 174.582 13.0455 174.27 13.6761C173.957 14.3068 173.801 14.983 173.801 15.7045V16.8636C173.801 17.8523 173.972 18.6903 174.312 19.3778C174.659 20.0597 175.139 20.5795 175.753 20.9375C176.366 21.2898 177.08 21.4659 177.892 21.4659C178.42 21.4659 178.898 21.392 179.324 21.2443C179.756 21.0909 180.128 20.8636 180.44 20.5625C180.753 20.2557 180.994 19.875 181.165 19.4205L183.108 19.9659C182.903 20.625 182.56 21.2045 182.077 21.7045C181.594 22.1989 180.997 22.5852 180.287 22.8636C179.577 23.1364 178.778 23.2727 177.892 23.2727ZM186.372 23V9.90909H188.315V11.8864H188.452C188.69 11.2386 189.122 10.7131 189.747 10.3097C190.372 9.90625 191.077 9.70454 191.861 9.70454C192.009 9.70454 192.193 9.70739 192.415 9.71307C192.636 9.71875 192.804 9.72727 192.918 9.73864V11.7841C192.849 11.767 192.693 11.7415 192.449 11.7074C192.21 11.6676 191.957 11.6477 191.69 11.6477C191.054 11.6477 190.486 11.7812 189.986 12.0483C189.491 12.3097 189.099 12.6733 188.81 13.1392C188.526 13.5994 188.384 14.125 188.384 14.7159V23H186.372Z" fill="#F4ECE3"/>
<path d="M27 13.268C28.3333 14.0378 28.3333 15.9623 27 16.7321L10.5 26.2583C9.16667 27.0281 7.5 26.0659 7.5 24.5263V5.47372C7.5 3.93412 9.16667 2.97187 10.5 3.74167L27 13.268Z" fill="#F4886F"/>
</svg>
